<svg width="282" height="282" xmlns="http://www.w3.org/2000/svg" viewBox="0 0 600 600"><rect width="100%" height="100%" fill="#181d1c"/><path d="M494.4,203.9a13.2,13.2,0,0,0-8.9-5.3l-36.3-5.2-6.6-35.8a13.7,13.7,0,0,0-15.9-10.9L293.9,171.1,190.6,156.2a13.7,13.7,0,0,0-15.5,11.5l-3.7,25.8L114,204a13.9,13.9,0,0,0-8.8,5.7,13.3,13.3,0,0,0-2.1,10.1l41.1,222.6a13.6,13.6,0,0,0,5.7,8.7,13.5,13.5,0,0,0,7.7,2.4l2.5-.2,182.7-33.5,108.4,15.6h1.9a13.7,13.7,0,0,0,13.5-11.6l4-27.5,2.2-.4a13.5,13.5,0,0,0,11-15.7l-6.1-32.9L497,213.9A13.3,13.3,0,0,0,494.4,203.9Zm-32.2,59.9-12.1,84-3.7,25.5-4.1,28.3-.7,5-14.9-2.2-84.3-12L173.6,368.1l22-151.4,4.1-28.4.5-3.3,9.9,1.4,84.4,12.1L426,217.4l28.5,4.1,13.6,1.9Zm-44-88,2.5,13.5-42.4-6.1ZM132.4,228.2l34.9-6.4L151.4,331.3Zm36.2,196L163,394l95.5,13.7Z"/><path d="M256.6,280.1a26.1,26.1,0,1,0-22.2-29.5A26.2,26.2,0,0,0,256.6,280.1Z"/><path d="M409.8,298.2,385,323.8l-31.3-61.4-59.5,68s-78.2-31.3-99.8,23.1l202,29,29.8,4.2-1.7-9.4Z"/></svg>