<!-- Svg Vector (c) Genevy Gravitons : https://github.com/Genevy -->
<svg xmlns="http://www.w3.org/2000/svg" width="600" height="600" viewBox="0 0 600 600">
<metadata>Svg Vector (c) Genevy Gravitons : https://github.com/Genevy</metadata>
  <rect width="600" height="600" fill="#181d1c"/>
  <g fill="#000">  
    <path d="M509.3,425.6a11.4,11.4,0,0,0,16.2.1h.1a11.9,11.9,0,0,0,0-16.6l-82.1-82.9a9.9,9.9,0,0,0-1.1-1.7,11.7,11.7,0,0,0-8.5-3.3,11.8,11.8,0,0,0-8.5,3.3c-.4.5-.6,1.2-1,1.7l-49.8,50.3L253.4,254.2a9.9,9.9,0,0,0-1.1-1.7,12.4,12.4,0,0,0-17,0,9.9,9.9,0,0,0-1.1,1.7L80.8,409a11.8,11.8,0,0,0,1.3,16.6,11.7,11.7,0,0,0,15.1,0L243.8,277.7,414.2,449.6a11.7,11.7,0,0,0,16.6-16.4l-.2-.2L391,393l43-43.5Z" transform="translate(-0.4)"/>
    <path d="M410.2,189c0-26.5-21.3-48-47.5-48a48,48,0,0,0,0,96h0a47.6,47.6,0,0,0,47.5-47.9ZM339,189a24,24,0,1,1,0,.2Z" transform="translate(-0.4)"/>
  </g>
</svg>
